<?xml version="1.0" encoding="UTF-8" standalone="no"?><!DOCTYPE svg PUBLIC "-//W3C//DTD SVG 1.1//EN" "http://www.w3.org/Graphics/SVG/1.1/DTD/svg11.dtd"><svg width="100%" height="100%" viewBox="0 0 1183 1173" version="1.1" xmlns="http://www.w3.org/2000/svg" xmlns:xlink="http://www.w3.org/1999/xlink" xml:space="preserve" xmlns:serif="http://www.serif.com/" style="fill-rule:evenodd;clip-rule:evenodd;stroke-linecap:round;"><path d="M701.336,83.528c5.057,-9.34 14.824,-15.159 25.445,-15.159c10.621,0 20.388,5.819 25.445,15.159c78.003,144.064 312.408,576.99 377.266,696.777c3.525,6.51 3.363,14.396 -0.426,20.756c-3.789,6.361 -10.647,10.258 -18.05,10.258c-132.724,-0 -602.355,-0 -755.244,-0c-10.18,-0 -19.609,-5.358 -24.819,-14.104c-5.21,-8.746 -5.433,-19.589 -0.585,-28.541c72.506,-133.914 295.309,-545.411 370.968,-685.146Z" style="fill:#ff3422;stroke:#000;stroke-width:17.72px;"/><circle cx="403.011" cy="772.555" r="391.019" style="fill:#0c0800;"/><clipPath id="_clip1"><circle cx="403.011" cy="772.555" r="391.019"/></clipPath><g clip-path="url(#_clip1)"><path d="M594.422,291.485c5.252,-8.607 14.606,-13.858 24.689,-13.862c10.083,-0.004 19.44,5.241 24.699,13.844c64.219,105.054 235.414,385.107 293.422,480c3.963,6.483 4.117,14.602 0.401,21.231c-3.716,6.629 -10.721,10.735 -18.32,10.738c-123.801,0.045 -517.537,0.191 -615.323,0.227c-4.493,0.002 -8.637,-2.423 -10.837,-6.341c-2.199,-3.917 -2.112,-8.718 0.228,-12.553c48.139,-78.88 233.619,-382.806 301.041,-493.284Z" style="fill:#fff;"/><clipPath id="_clip2"><path d="M594.422,291.485c5.252,-8.607 14.606,-13.858 24.689,-13.862c10.083,-0.004 19.44,5.241 24.699,13.844c64.219,105.054 235.414,385.107 293.422,480c3.963,6.483 4.117,14.602 0.401,21.231c-3.716,6.629 -10.721,10.735 -18.32,10.738c-123.801,0.045 -517.537,0.191 -615.323,0.227c-4.493,0.002 -8.637,-2.423 -10.837,-6.341c-2.199,-3.917 -2.112,-8.718 0.228,-12.553c48.139,-78.88 233.619,-382.806 301.041,-493.284Z"/></clipPath><g clip-path="url(#_clip2)"><path d="M635.324,278.423c5.252,-8.607 14.606,-13.859 24.688,-13.862c10.083,-0.004 19.441,5.241 24.699,13.843c64.219,105.054 235.414,385.107 293.422,480c3.964,6.484 4.117,14.603 0.402,21.232c-3.716,6.628 -10.721,10.734 -18.321,10.737c-141.762,0.053 -637.467,0.236 -637.467,0.236c0,0 234.813,-384.763 312.577,-512.186Z" style="fill:#fff;"/></g></g><circle cx="403.011" cy="772.555" r="391.019" style="fill:none;stroke:#0c0800;stroke-width:17.72px;stroke-linejoin:round;stroke-miterlimit:1.5;"/><path d="M789.09,809.351c-19.043,198.098 -186.155,353.211 -389.211,353.211c-215.809,0 -391.019,-175.209 -391.019,-391.018c0,-215.809 175.21,-391.019 391.019,-391.019c43.475,0 85.303,7.111 124.383,20.231l-194.347,358.942c-5.644,10.423 -5.385,23.048 0.682,33.231c6.066,10.183 17.045,16.422 28.898,16.422l429.595,-0Z" style="fill:#2956ff;stroke:#000;stroke-width:17.72px;stroke-linejoin:round;stroke-miterlimit:1.5;"/><circle cx="399.879" cy="771.544" r="391.019" style="fill:none;"/></svg>